<svg xmlns="http://www.w3.org/2000/svg" width="768" height="199" viewBox="0 0 768 199">
  <g id="Grupo_9" data-name="Grupo 9" transform="translate(-0.5 -1115)">
    <path id="Polígono_1" data-name="Polígono 1" d="M10.131,1.8a2.4,2.4,0,0,1,3.534,2.018l.007.154a2.4,2.4,0,0,0,1.085,1.907l.173.113a2.4,2.4,0,0,1,0,4.023l-.173.113a2.4,2.4,0,0,0-1.085,1.907l-.007.154A2.4,2.4,0,0,1,10.131,14.2h0a2.4,2.4,0,0,0-2.263,0h0a2.4,2.4,0,0,1-3.534-2.018l-.007-.154a2.4,2.4,0,0,0-1.085-1.907l-.173-.113a2.4,2.4,0,0,1,0-4.023l.173-.113A2.4,2.4,0,0,0,4.328,3.968l.007-.154A2.4,2.4,0,0,1,7.869,1.8h0a2.4,2.4,0,0,0,2.263,0Z" transform="translate(32 1123)" fill="#03cdd7"/>
    <path id="Polígono_2" data-name="Polígono 2" d="M10.131,1.8a2.4,2.4,0,0,1,3.534,2.018l.007.154a2.4,2.4,0,0,0,1.085,1.907l.173.113a2.4,2.4,0,0,1,0,4.023l-.173.113a2.4,2.4,0,0,0-1.085,1.907l-.007.154A2.4,2.4,0,0,1,10.131,14.2h0a2.4,2.4,0,0,0-2.263,0h0a2.4,2.4,0,0,1-3.534-2.018l-.007-.154a2.4,2.4,0,0,0-1.085-1.907l-.173-.113a2.4,2.4,0,0,1,0-4.023l.173-.113A2.4,2.4,0,0,0,4.328,3.968l.007-.154A2.4,2.4,0,0,1,7.869,1.8h0a2.4,2.4,0,0,0,2.263,0Z" transform="translate(32 1298)" fill="#03cdd7"/>
    <path id="Polígono_4" data-name="Polígono 4" d="M10.131,1.8a2.4,2.4,0,0,1,3.534,2.018l.007.154a2.4,2.4,0,0,0,1.085,1.907l.173.113a2.4,2.4,0,0,1,0,4.023l-.173.113a2.4,2.4,0,0,0-1.085,1.907l-.007.154A2.4,2.4,0,0,1,10.131,14.2h0a2.4,2.4,0,0,0-2.263,0h0a2.4,2.4,0,0,1-3.534-2.018l-.007-.154a2.4,2.4,0,0,0-1.085-1.907l-.173-.113a2.4,2.4,0,0,1,0-4.023l.173-.113A2.4,2.4,0,0,0,4.328,3.968l.007-.154A2.4,2.4,0,0,1,7.869,1.8h0a2.4,2.4,0,0,0,2.263,0Z" transform="translate(516 1298)" fill="#03cdd7"/>
    <path id="Polígono_6" data-name="Polígono 6" d="M10.131,1.8a2.4,2.4,0,0,1,3.534,2.018l.007.154a2.4,2.4,0,0,0,1.085,1.907l.173.113a2.4,2.4,0,0,1,0,4.023l-.173.113a2.4,2.4,0,0,0-1.085,1.907l-.007.154A2.4,2.4,0,0,1,10.131,14.2h0a2.4,2.4,0,0,0-2.263,0h0a2.4,2.4,0,0,1-3.534-2.018l-.007-.154a2.4,2.4,0,0,0-1.085-1.907l-.173-.113a2.4,2.4,0,0,1,0-4.023l.173-.113A2.4,2.4,0,0,0,4.328,3.968l.007-.154A2.4,2.4,0,0,1,7.869,1.8h0a2.4,2.4,0,0,0,2.263,0Z" transform="translate(152 1205)" fill="#03cdd7"/>
    <path id="Polígono_8" data-name="Polígono 8" d="M10.131,1.8a2.4,2.4,0,0,1,3.534,2.018l.007.154a2.4,2.4,0,0,0,1.085,1.907l.173.113a2.4,2.4,0,0,1,0,4.023l-.173.113a2.4,2.4,0,0,0-1.085,1.907l-.007.154A2.4,2.4,0,0,1,10.131,14.2h0a2.4,2.4,0,0,0-2.263,0h0a2.4,2.4,0,0,1-3.534-2.018l-.007-.154a2.4,2.4,0,0,0-1.085-1.907l-.173-.113a2.4,2.4,0,0,1,0-4.023l.173-.113A2.4,2.4,0,0,0,4.328,3.968l.007-.154A2.4,2.4,0,0,1,7.869,1.8h0a2.4,2.4,0,0,0,2.263,0Z" transform="translate(516 1115)" fill="#03cdd7"/>
    <line id="Linha_1" data-name="Linha 1" x1="356" y1="93" transform="translate(167.5 1213.5)" fill="none" stroke="#03cdd7" stroke-width="1"/>
    <line id="Linha_2" data-name="Linha 2" x1="110" y2="88" transform="translate(44.5 1213.5)" fill="none" stroke="#03cdd7" stroke-width="1"/>
    <line id="Linha_3" data-name="Linha 3" x1="118" y1="77" transform="translate(38.5 1135.5)" fill="none" stroke="#03cdd7" stroke-width="1"/>
    <line id="Linha_4" data-name="Linha 4" y1="89" x2="356" transform="translate(167.5 1123.5)" fill="none" stroke="#03cdd7" stroke-width="1"/>
    <path id="Polígono_9" data-name="Polígono 9" d="M10.131,1.8a2.4,2.4,0,0,1,3.534,2.018l.007.154a2.4,2.4,0,0,0,1.085,1.907l.173.113a2.4,2.4,0,0,1,0,4.023l-.173.113a2.4,2.4,0,0,0-1.085,1.907l-.007.154A2.4,2.4,0,0,1,10.131,14.2h0a2.4,2.4,0,0,0-2.263,0h0a2.4,2.4,0,0,1-3.534-2.018l-.007-.154a2.4,2.4,0,0,0-1.085-1.907l-.173-.113a2.4,2.4,0,0,1,0-4.023l.173-.113A2.4,2.4,0,0,0,4.328,3.968l.007-.154A2.4,2.4,0,0,1,7.869,1.8h0a2.4,2.4,0,0,0,2.263,0Z" transform="translate(624 1206)" fill="#03cdd7"/>
    <path id="Polígono_10" data-name="Polígono 10" d="M10.131,1.8a2.4,2.4,0,0,1,3.534,2.018l.007.154a2.4,2.4,0,0,0,1.085,1.907l.173.113a2.4,2.4,0,0,1,0,4.023l-.173.113a2.4,2.4,0,0,0-1.085,1.907l-.007.154A2.4,2.4,0,0,1,10.131,14.2h0a2.4,2.4,0,0,0-2.263,0h0a2.4,2.4,0,0,1-3.534-2.018l-.007-.154a2.4,2.4,0,0,0-1.085-1.907l-.173-.113a2.4,2.4,0,0,1,0-4.023l.173-.113A2.4,2.4,0,0,0,4.328,3.968l.007-.154A2.4,2.4,0,0,1,7.869,1.8h0a2.4,2.4,0,0,0,2.263,0Z" transform="translate(5 1205)" fill="#03cdd7"/>
    <line id="Linha_5" data-name="Linha 5" x1="22" y2="74" transform="translate(16.5 1135.5)" fill="none" stroke="#03cdd7" stroke-width="1"/>
    <line id="Linha_6" data-name="Linha 6" x2="28" y2="83" transform="translate(16.5 1218.5)" fill="none" stroke="#03cdd7" stroke-width="1"/>
    <line id="Linha_7" data-name="Linha 7" x1="9" transform="translate(0.5 1213.5)" fill="none" stroke="#03cdd7" stroke-width="1"/>
    <line id="Linha_8" data-name="Linha 8" y1="85" x2="104" transform="translate(529.5 1218.5)" fill="none" stroke="#03cdd7" stroke-width="1"/>
    <line id="Linha_9" data-name="Linha 9" x1="99" y1="86" transform="translate(531.5 1123.5)" fill="none" stroke="#03cdd7" stroke-width="1"/>
    <line id="Linha_10" data-name="Linha 10" x2="131" transform="translate(637.5 1213.5)" fill="none" stroke="#03cdd7" stroke-width="1"/>
  </g>
</svg>
